<svg width="887.7" height="145.8" viewBox="0 0 887.7 145.8" xmlns="http://www.w3.org/2000/svg">
	<g id="svgGroup" stroke-linecap="round" fill-rule="evenodd" font-size="9pt" stroke="#000" stroke-width="0.25mm" fill="none" style="stroke:#000;stroke-width:0.25mm;fill:none">
		<path d="M 46.5 111 L 32.25 111 L 32.25 18.6 L 0 18.6 L 0 6 L 78.75 6 L 78.75 18.6 L 46.5 18.6 L 46.5 111 Z" id="0" vector-effect="non-scaling-stroke"/>
		<path d="M 105.75 111 L 92.25 111 L 92.25 0 L 105.75 0 L 105.75 45.45 Q 109.95 39.3 116.4 35.25 A 26.358 26.358 0 0 1 127.087 31.486 A 33.893 33.893 0 0 1 131.55 31.2 Q 144.75 31.2 151.275 39.15 Q 157.462 46.689 157.783 58.813 A 50.646 50.646 0 0 1 157.8 60.15 L 157.8 111 L 144.3 111 L 144.3 61.65 A 29.436 29.436 0 0 0 143.796 56.039 Q 143.151 52.717 141.679 50.095 A 16.474 16.474 0 0 0 140.4 48.15 A 12.63 12.63 0 0 0 131.163 43.13 A 17.969 17.969 0 0 0 129.45 43.05 A 19.844 19.844 0 0 0 119.38 45.85 A 26.378 26.378 0 0 0 116.325 47.925 Q 110.1 52.8 105.75 59.4 L 105.75 111 Z" id="1" vector-effect="non-scaling-stroke"/>
		<path d="M 194.55 111 L 181.05 111 L 181.05 33 L 194.55 33 L 194.55 111 Z M 181.256 16.932 A 8.959 8.959 0 0 0 187.8 19.65 Q 192.15 19.65 194.7 17.025 A 8.665 8.665 0 0 0 196.837 13.325 A 11.266 11.266 0 0 0 197.25 10.2 A 10.887 10.887 0 0 0 197.249 10.078 A 9.091 9.091 0 0 0 194.475 3.525 Q 191.7 0.75 187.8 0.75 A 12.396 12.396 0 0 0 185.316 0.987 A 8.492 8.492 0 0 0 180.9 3.3 Q 178.35 5.85 178.35 10.2 A 8.987 8.987 0 0 0 179.088 13.828 A 9.965 9.965 0 0 0 181.125 16.8 A 11.203 11.203 0 0 0 181.256 16.932 Z" id="2" vector-effect="non-scaling-stroke"/>
		<path d="M 211.8 104.7 L 217.5 93.45 A 27.835 27.835 0 0 0 222.215 96.639 Q 224.548 97.905 227.325 98.925 Q 233.25 101.1 240 101.1 A 40.669 40.669 0 0 0 244.624 100.855 Q 249.403 100.307 252.352 98.527 A 11.608 11.608 0 0 0 252.675 98.325 A 11.174 11.174 0 0 0 254.975 96.386 A 7.578 7.578 0 0 0 256.95 91.2 A 10.684 10.684 0 0 0 256.479 87.979 A 9.318 9.318 0 0 0 255.375 85.65 A 9.576 9.576 0 0 0 253.982 84.009 Q 252.356 82.451 249.6 80.925 Q 245.806 78.825 238.952 76.419 A 155.394 155.394 0 0 0 237.45 75.9 A 69.925 69.925 0 0 1 230.854 73.286 Q 224.704 70.452 221.025 66.975 Q 215.55 61.8 215.55 52.65 A 18.18 18.18 0 0 1 221.472 39.127 A 26.194 26.194 0 0 1 223.425 37.425 Q 231.3 31.2 245.25 31.2 A 61.191 61.191 0 0 1 251.919 31.546 Q 255.492 31.938 258.6 32.775 A 58.154 58.154 0 0 1 264.802 34.808 A 46.666 46.666 0 0 1 269.1 36.75 L 265.35 47.85 A 36.792 36.792 0 0 0 259.848 45.202 A 45.287 45.287 0 0 0 256.125 43.95 A 37.536 37.536 0 0 0 249.4 42.679 A 47.756 47.756 0 0 0 244.65 42.45 Q 239.646 42.45 236.186 43.746 A 12.764 12.764 0 0 0 232.8 45.6 Q 230.111 47.692 229.207 50.048 A 6.794 6.794 0 0 0 228.75 52.5 A 7.381 7.381 0 0 0 230.993 57.827 A 10.623 10.623 0 0 0 231.9 58.65 Q 234.998 61.158 243.898 64.1 A 126.729 126.729 0 0 0 244.2 64.2 A 101.629 101.629 0 0 1 251.793 67.047 Q 259.013 70.115 263.15 73.543 A 22.42 22.42 0 0 1 264.9 75.15 A 20.396 20.396 0 0 1 270.726 89.02 A 26.842 26.842 0 0 1 270.75 90.15 A 20.81 20.81 0 0 1 269.157 98.424 Q 267.207 102.976 262.873 106.282 A 24.927 24.927 0 0 1 262.275 106.725 Q 255.166 111.821 243.992 112.642 A 60.634 60.634 0 0 1 239.55 112.8 A 59.985 59.985 0 0 1 230.758 112.184 A 46.422 46.422 0 0 1 223.575 110.55 Q 216.45 108.3 211.8 104.7 Z" id="3" vector-effect="non-scaling-stroke"/>
		<path d="M 347.25 111 L 333.75 111 L 333.75 33 L 347.25 33 L 347.25 111 Z M 333.956 16.932 A 8.959 8.959 0 0 0 340.5 19.65 Q 344.85 19.65 347.4 17.025 A 8.665 8.665 0 0 0 349.537 13.325 A 11.266 11.266 0 0 0 349.95 10.2 A 10.887 10.887 0 0 0 349.949 10.078 A 9.091 9.091 0 0 0 347.175 3.525 Q 344.4 0.75 340.5 0.75 A 12.396 12.396 0 0 0 338.016 0.987 A 8.492 8.492 0 0 0 333.6 3.3 Q 331.05 5.85 331.05 10.2 A 8.987 8.987 0 0 0 331.788 13.828 A 9.965 9.965 0 0 0 333.825 16.8 A 11.203 11.203 0 0 0 333.956 16.932 Z" id="5" vector-effect="non-scaling-stroke"/>
		<path d="M 364.5 104.7 L 370.2 93.45 A 27.835 27.835 0 0 0 374.915 96.639 Q 377.248 97.905 380.025 98.925 Q 385.95 101.1 392.7 101.1 A 40.669 40.669 0 0 0 397.324 100.855 Q 402.103 100.307 405.052 98.527 A 11.608 11.608 0 0 0 405.375 98.325 A 11.174 11.174 0 0 0 407.675 96.386 A 7.578 7.578 0 0 0 409.65 91.2 A 10.684 10.684 0 0 0 409.179 87.979 A 9.318 9.318 0 0 0 408.075 85.65 A 9.576 9.576 0 0 0 406.682 84.009 Q 405.056 82.451 402.3 80.925 Q 398.506 78.825 391.652 76.419 A 155.394 155.394 0 0 0 390.15 75.9 A 69.925 69.925 0 0 1 383.554 73.286 Q 377.404 70.452 373.725 66.975 Q 368.25 61.8 368.25 52.65 A 18.18 18.18 0 0 1 374.172 39.127 A 26.194 26.194 0 0 1 376.125 37.425 Q 384 31.2 397.95 31.2 A 61.191 61.191 0 0 1 404.619 31.546 Q 408.192 31.938 411.3 32.775 A 58.154 58.154 0 0 1 417.502 34.808 A 46.666 46.666 0 0 1 421.8 36.75 L 418.05 47.85 A 36.792 36.792 0 0 0 412.548 45.202 A 45.287 45.287 0 0 0 408.825 43.95 A 37.536 37.536 0 0 0 402.1 42.679 A 47.756 47.756 0 0 0 397.35 42.45 Q 392.346 42.45 388.886 43.746 A 12.764 12.764 0 0 0 385.5 45.6 Q 382.811 47.692 381.907 50.048 A 6.794 6.794 0 0 0 381.45 52.5 A 7.381 7.381 0 0 0 383.693 57.827 A 10.623 10.623 0 0 0 384.6 58.65 Q 387.698 61.158 396.598 64.1 A 126.729 126.729 0 0 0 396.9 64.2 A 101.629 101.629 0 0 1 404.493 67.047 Q 411.713 70.115 415.85 73.543 A 22.42 22.42 0 0 1 417.6 75.15 A 20.396 20.396 0 0 1 423.426 89.02 A 26.842 26.842 0 0 1 423.45 90.15 A 20.81 20.81 0 0 1 421.857 98.424 Q 419.907 102.976 415.573 106.282 A 24.927 24.927 0 0 1 414.975 106.725 Q 407.866 111.821 396.692 112.642 A 60.634 60.634 0 0 1 392.25 112.8 A 59.985 59.985 0 0 1 383.458 112.184 A 46.422 46.422 0 0 1 376.275 110.55 Q 369.15 108.3 364.5 104.7 Z" id="6" vector-effect="non-scaling-stroke"/>
		<path d="M 573.15 107.25 L 560.1 112.5 L 548.4 82.5 L 499.8 82.5 L 488.1 112.2 L 475.95 107.25 L 517.05 6 L 532.65 6 L 573.15 107.25 Z M 524.1 20.1 L 504.3 70.5 L 543.75 70.5 L 524.1 20.1 Z" id="8" vector-effect="non-scaling-stroke"/>
		<path d="M 571.65 142.8 L 574.65 131.55 A 14.861 14.861 0 0 0 576.397 132.411 Q 577.631 132.928 579.15 133.35 A 20.27 20.27 0 0 0 582.568 133.976 A 26.037 26.037 0 0 0 585.15 134.1 Q 591.45 134.1 596.4 130.05 A 18.005 18.005 0 0 0 599.299 126.958 Q 601.922 123.492 604.411 117.713 A 87.87 87.87 0 0 0 605.85 114.15 L 609.3 105.15 L 602.1 105.15 L 571.65 36.6 L 583.65 31.2 L 612.75 96.15 L 635.4 31.8 L 647.85 36.6 L 619.2 114.9 Q 616.144 123.332 612.717 129.171 A 46.29 46.29 0 0 1 609.75 133.65 Q 604.65 140.4 598.5 143.1 A 32.177 32.177 0 0 1 588.516 145.631 A 39.058 39.058 0 0 1 584.85 145.8 Q 580.35 145.8 576.975 144.9 A 30.49 30.49 0 0 1 574.823 144.246 Q 573.817 143.896 572.985 143.51 A 12.921 12.921 0 0 1 571.65 142.8 Z" id="9" vector-effect="non-scaling-stroke"/>
		<path d="M 660.6 83.7 L 660.6 33 L 674.1 33 L 674.1 81.9 Q 674.1 88.003 675.835 92.204 A 15.204 15.204 0 0 0 678 95.925 A 12.606 12.606 0 0 0 685.67 100.456 A 19.21 19.21 0 0 0 689.4 100.8 Q 695.55 100.8 701.325 98.325 Q 707.1 95.85 711.6 91.65 L 711.6 33 L 725.1 33 L 725.1 90.75 A 23.402 23.402 0 0 0 725.252 93.53 Q 725.75 97.675 727.875 99.225 Q 730.65 101.25 733.95 101.25 L 731.1 111.75 A 26.464 26.464 0 0 1 724.791 111.056 Q 716.342 108.979 713.86 100.683 A 20.004 20.004 0 0 1 713.85 100.65 Q 708.6 106.05 701.7 109.425 Q 694.8 112.8 686.85 112.8 Q 680.1 112.8 674.1 109.95 A 21.661 21.661 0 0 1 665.835 102.992 A 27.4 27.4 0 0 1 664.35 100.725 A 24.359 24.359 0 0 1 661.853 94.585 Q 661.07 91.63 660.776 88.117 A 53.058 53.058 0 0 1 660.6 83.7 Z" id="10" vector-effect="non-scaling-stroke"/>
		<path d="M 745.2 104.7 L 750.9 93.45 A 27.835 27.835 0 0 0 755.615 96.639 Q 757.948 97.905 760.725 98.925 Q 766.65 101.1 773.4 101.1 A 40.669 40.669 0 0 0 778.024 100.855 Q 782.803 100.307 785.752 98.527 A 11.608 11.608 0 0 0 786.075 98.325 A 11.174 11.174 0 0 0 788.375 96.386 A 7.578 7.578 0 0 0 790.35 91.2 A 10.684 10.684 0 0 0 789.879 87.979 A 9.318 9.318 0 0 0 788.775 85.65 A 9.576 9.576 0 0 0 787.382 84.009 Q 785.756 82.451 783 80.925 Q 779.206 78.825 772.352 76.419 A 155.394 155.394 0 0 0 770.85 75.9 A 69.925 69.925 0 0 1 764.254 73.286 Q 758.104 70.452 754.425 66.975 Q 748.95 61.8 748.95 52.65 A 18.18 18.18 0 0 1 754.872 39.127 A 26.194 26.194 0 0 1 756.825 37.425 Q 764.7 31.2 778.65 31.2 A 61.191 61.191 0 0 1 785.319 31.546 Q 788.892 31.938 792 32.775 A 58.154 58.154 0 0 1 798.202 34.808 A 46.666 46.666 0 0 1 802.5 36.75 L 798.75 47.85 A 36.792 36.792 0 0 0 793.248 45.202 A 45.287 45.287 0 0 0 789.525 43.95 A 37.536 37.536 0 0 0 782.8 42.679 A 47.756 47.756 0 0 0 778.05 42.45 Q 773.046 42.45 769.586 43.746 A 12.764 12.764 0 0 0 766.2 45.6 Q 763.511 47.692 762.607 50.048 A 6.794 6.794 0 0 0 762.15 52.5 A 7.381 7.381 0 0 0 764.393 57.827 A 10.623 10.623 0 0 0 765.3 58.65 Q 768.398 61.158 777.298 64.1 A 126.729 126.729 0 0 0 777.6 64.2 A 101.629 101.629 0 0 1 785.193 67.047 Q 792.413 70.115 796.55 73.543 A 22.42 22.42 0 0 1 798.3 75.15 A 20.396 20.396 0 0 1 804.126 89.02 A 26.842 26.842 0 0 1 804.15 90.15 A 20.81 20.81 0 0 1 802.557 98.424 Q 800.607 102.976 796.273 106.282 A 24.927 24.927 0 0 1 795.675 106.725 Q 788.566 111.821 777.392 112.642 A 60.634 60.634 0 0 1 772.95 112.8 A 59.985 59.985 0 0 1 764.158 112.184 A 46.422 46.422 0 0 1 756.975 110.55 Q 749.85 108.3 745.2 104.7 Z" id="11" vector-effect="non-scaling-stroke"/>
		<path d="M 835.65 111 L 822.15 111 L 822.15 0 L 835.65 0 L 835.65 45.45 Q 839.85 39.3 846.3 35.25 A 26.358 26.358 0 0 1 856.987 31.486 A 33.893 33.893 0 0 1 861.45 31.2 Q 874.65 31.2 881.175 39.15 Q 887.362 46.689 887.683 58.813 A 50.646 50.646 0 0 1 887.7 60.15 L 887.7 111 L 874.2 111 L 874.2 61.65 A 29.436 29.436 0 0 0 873.696 56.039 Q 873.051 52.717 871.579 50.095 A 16.474 16.474 0 0 0 870.3 48.15 A 12.63 12.63 0 0 0 861.063 43.13 A 17.969 17.969 0 0 0 859.35 43.05 A 19.844 19.844 0 0 0 849.28 45.85 A 26.378 26.378 0 0 0 846.225 47.925 Q 840 52.8 835.65 59.4 L 835.65 111 Z" id="12" vector-effect="non-scaling-stroke"/>
	</g>
</svg>
